<svg width="1280" height="768" xmlns="http://www.w3.org/2000/svg">
 <!-- Created with Method Draw - http://github.com/duopixel/Method-Draw/ -->
 <g>
  <title>background</title>
  <rect fill="#fff" id="canvas_background" height="770" width="1282" y="-1" x="-1"/>
  <g display="none" overflow="visible" y="0" x="0" height="100%" width="100%" id="canvasGrid">
   <rect fill="url(#gridpattern)" stroke-width="0" y="0" x="0" height="100%" width="100%"/>
  </g>
 </g>
 <g>
  <title>Layer 1</title>
  <path stroke="#000" id="svg_2" d="m623.712984,148.689866c-120.971959,0 -219.037026,95.957922 -219.037026,214.333293c0,118.372885 98.065067,214.333362 219.037026,214.333362c120.973361,0 219.037026,-95.960477 219.037026,-214.333362c0,-118.375371 -98.063665,-214.333293 -219.037026,-214.333293zm18.914215,330.537485l0,30.189398l-29.508265,0l0,-29.849259c-48.422428,-6.488967 -69.641876,-45.420661 -69.641876,-45.420661l30.17207,-24.670761c0,0 19.230435,32.782814 54.043706,32.782814c19.228893,0 33.818283,-10.072226 33.818283,-27.269595c0,-40.242214 -110.754425,-35.362358 -110.754425,-109.996464c0,-32.445419 26.192465,-55.819463 62.346541,-61.332699l0,-30.18638l29.509492,0l0,30.169679c25.198002,3.245881 55.038082,16.223953 55.038082,44.138125l0,21.413374l-39.124814,0l0,-10.381569c0,-10.70559 -13.939954,-17.844518 -29.522459,-17.844518c-19.89296,0 -34.482421,9.732465 -34.482421,23.360087c0,41.20181 110.75439,31.145925 110.75439,109.349675c0.015823,32.13287 -24.51939,60.035657 -62.648304,65.548773l0,-0.000017z" stroke-width="1.5" fill="#36ff32"/>
  <path id="svg_3" d="m-297.560834,228.233087c-0.345181,0 -0.625,0.279815 -0.625,0.625c0,0.345178 0.279819,0.625 0.625,0.625c0.345185,0 0.625,-0.279823 0.625,-0.625c0,-0.345185 -0.279815,-0.625 -0.625,-0.625zm0.05397,0.963853l0,0.088033l-0.084199,0l0,-0.087041c-0.138168,-0.018922 -0.198716,-0.132447 -0.198716,-0.132447l0.086093,-0.07194c0,0 0.054872,0.095595 0.154208,0.095595c0.054868,0 0.096497,-0.029371 0.096497,-0.079519c0,-0.117347 -0.316027,-0.103117 -0.316027,-0.320752c0,-0.094611 0.074738,-0.162771 0.1779,-0.178847l0,-0.088024l0.084202,0l0,0.087975c0.0719,0.009465 0.157046,0.047309 0.157046,0.128708l0,0.062442l-0.111639,0l0,-0.030273c0,-0.031218 -0.039776,-0.052035 -0.084239,-0.052035c-0.056763,0 -0.098392,0.02838 -0.098392,0.068118c0,0.120145 0.316026,0.090822 0.316026,0.318866c0.000045,0.0937 -0.069964,0.175065 -0.178761,0.191141l0,0z" stroke-opacity="null" stroke-width="1.5" stroke="#000" fill="#36ff32"/>
  <path stroke="#000" id="svg_4" d="m507.291832,516.831954l36.579325,-18.475786c-0.719081,-6.845482 -2.108811,-13.486022 -3.847361,-20.013998l-40.634402,-5.37358c-3.517047,-8.091025 -8.161433,-15.595226 -13.620814,-22.48373l15.489288,-36.379764c-5.09316,-4.743535 -10.593572,-9.068264 -16.38284,-13.04766l-34.50388,20.68605c-8.091198,-4.063452 -16.808684,-7.149697 -25.959965,-9.131834l-12.469164,-36.890689c-3.536374,-0.255023 -7.071729,-0.524457 -10.678152,-0.524457s-7.13178,0.263211 -10.678787,0.524457l-12.345635,36.563917c-9.396589,1.918619 -18.306559,5.040712 -26.605735,9.154318l-33.96654,-20.381762c-5.781942,3.979396 -11.282124,8.304136 -16.374879,13.04766l15.063028,35.374886c-5.870837,7.185576 -10.786055,15.113833 -14.477824,23.658602l-39.351612,5.197374c-1.731213,6.518805 -3.128214,13.152307 -3.839893,20.013183l35.319039,17.845584c0.400144,9.39399 2.03102,18.4983 4.918942,27.071733l-26.64278,28.132767c3.099261,6.138869 6.549785,12.092267 10.541482,17.677691l39.225487,-8.041865c6.431314,6.682599 13.75871,12.537645 21.843009,17.379563l-1.486793,38.326963c6.442133,2.7747 13.135608,5.096899 20.033447,6.953078l24.815719,-30.462287c4.403075,0.536817 8.861778,0.89838 13.409496,0.89838c4.926607,0 9.744566,-0.425039 14.484942,-1.04701l24.944943,30.631278c6.908669,-1.854035 13.591949,-4.176109 20.033425,-6.950966l-1.515482,-39.015265c7.705398,-4.763937 14.692449,-10.463316 20.852318,-16.898096l40.245613,8.24685c3.991718,-5.584567 7.442713,-11.531628 10.540857,-17.675631l-27.505714,-29.053871c2.642242,-8.120735 4.118205,-16.69331 4.547904,-25.536083l-0.000011,0zm-60.797554,44.380448l-17.342893,10.781982l-10.667037,-15.651403c-5.549151,2.038367 -11.523446,3.277813 -17.82132,3.277813c-27.505594,0 -49.796315,-21.295703 -49.796315,-47.559094c0,-26.264458 22.290721,-47.55192 49.796315,-47.55192c27.498411,0 49.797279,21.287462 49.797279,47.55192c0,13.124595 -5.567372,24.98909 -14.566631,33.59743l10.600602,15.553271z" stroke-opacity="null" stroke-width="1.5" fill="#007fff"/>
  <path transform="rotate(72.3313217163086 847.5748901367188,513.159423828125) " stroke="#000" id="svg_5" d="m953.588137,520.535656l36.57933,-18.47578c-0.71909,-6.84549 -2.10881,-13.48603 -3.84736,-20.014l-40.63441,-5.37358c-3.51704,-8.09103 -8.16143,-15.59523 -13.62081,-22.48373l15.48929,-36.37977c-5.09316,-4.74353 -10.59357,-9.06826 -16.38284,-13.04766l-34.50388,20.68605c-8.0912,-4.06345 -16.80869,-7.14969 -25.95997,-9.13183l-12.46916,-36.89069c-3.53637,-0.25502 -7.07173,-0.52446 -10.67815,-0.52446s-7.13178,0.26322 -10.67879,0.52446l-12.34563,36.56392c-9.39659,1.91862 -18.30656,5.04071 -26.60574,9.15432l-33.96654,-20.38177c-5.78194,3.9794 -11.28212,8.30414 -16.37488,13.04766l15.06303,35.37489c-5.87084,7.18558 -10.78606,15.11383 -14.47782,23.6586l-39.35162,5.19738c-1.73121,6.5188 -3.12821,13.1523 -3.83989,20.01318l35.31904,17.84558c0.40014,9.39399 2.03102,18.4983 4.91894,27.07174l-26.64278,28.13276c3.09926,6.13887 6.54979,12.09227 10.54148,17.67769l39.22549,-8.04186c6.43131,6.6826 13.75871,12.53764 21.84301,17.37956l-1.48679,38.32696c6.44213,2.7747 13.1356,5.0969 20.03344,6.95308l24.81572,-30.46228c4.40308,0.53681 8.86178,0.89838 13.4095,0.89838c4.9266,0 9.74456,-0.42504 14.48494,-1.04701l24.94494,30.63127c6.90867,-1.85403 13.59195,-4.17611 20.03343,-6.95096l-1.51549,-39.01527c7.7054,-4.76394 14.69245,-10.46331 20.85232,-16.89809l40.24562,8.24685c3.99171,-5.58457 7.44271,-11.53163 10.54085,-17.67564l-27.50571,-29.05387c2.64224,-8.12073 4.1182,-16.69331 4.5479,-25.53608l-0.00001,0zm-60.79755,44.38045l-17.3429,10.78198l-10.66703,-15.6514c-5.54915,2.03837 -11.52345,3.27781 -17.82132,3.27781c-27.5056,0 -49.79632,-21.2957 -49.79632,-47.55909c0,-26.26446 22.29072,-47.55192 49.79632,-47.55192c27.49841,0 49.79728,21.28746 49.79728,47.55192c0,13.12459 -5.56738,24.98909 -14.56664,33.59743l10.60061,15.55327z" stroke-opacity="null" stroke-width="1.5" fill="#ff0000"/>
 </g>
</svg>