<svg width="700" height="700" xmlns="http://www.w3.org/2000/svg">
 <!-- Created with Method Draw - http://github.com/duopixel/Method-Draw/ -->
 <g>
  <title>background</title>
  <rect fill="none" id="canvas_background" height="702" width="702" y="-1" x="-1"/>
  <g display="none" overflow="visible" y="0" x="0" height="100%" width="100%" id="canvasGrid">
   <rect fill="url(#gridpattern)" stroke-width="0" y="0" x="0" height="100%" width="100%"/>
  </g>
 </g>
 <g>
  <title>Layer 1</title>
  <path stroke="#000" id="svg_1" d="m338.436722,163.624589c-97.203045,0 -176.000009,75.19395 -176.000009,167.954522c0,92.758624 78.796964,167.954576 176.000009,167.954576c97.204171,0 176.000009,-75.195952 176.000009,-167.954576c0,-92.760572 -78.795838,-167.954522 -176.000009,-167.954522zm15.197896,259.013728l0,23.656828l-23.710397,0l0,-23.390291c-38.908252,-5.084844 -55.958443,-35.592256 -55.958443,-35.592256l24.243776,-19.332348c0,0 15.451984,25.689065 43.425045,25.689065c15.450745,0 27.173571,-7.892735 27.173571,-21.36883c0,-31.534353 -88.993081,-27.710431 -88.993081,-86.194745c0,-25.424678 21.046095,-43.7409 50.096516,-48.061148l0,-23.654463l23.711383,0l0,23.641376c20.247027,2.543517 44.224043,12.713313 44.224043,34.587243l0,16.779815l-31.43746,0l0,-8.135141c0,-8.389048 -11.200993,-13.983211 -23.721802,-13.983211c-15.984335,0 -27.707217,7.626494 -27.707217,18.305286c0,32.286306 88.993053,24.406376 88.993053,85.687912c0.012714,25.179759 -19.701751,47.044768 -50.338988,51.364922l0,-0.000013z" stroke-width="1.5" fill="#00bf00"/>
  <path stroke="#000" id="svg_2" d="m245.481452,475.788367l24.253782,-12.760455c-0.476784,-4.727889 -1.398239,-9.314233 -2.550978,-13.822835l-26.942485,-3.711308c-2.331964,-5.588134 -5.411407,-10.770973 -9.031229,-15.528576l10.270114,-25.125987c-3.377001,-3.276162 -7.024027,-6.263072 -10.86258,-9.011475l-22.877666,14.286993c-5.364838,-2.806457 -11.144934,-4.937998 -17.212656,-6.306978l-8.267632,-25.478861c-2.344779,-0.176134 -4.688883,-0.36222 -7.080108,-0.36222s-4.7287,0.181789 -7.080529,0.36222l-8.185726,25.253174c-6.230372,1.325111 -12.138094,3.48141 -17.640831,6.322506l-22.521385,-14.076834c-3.833695,2.748403 -7.480569,5.73532 -10.857301,9.011475l9.987483,24.43196c-3.892636,4.962778 -7.151653,10.438495 -9.599466,16.340011l-26.091937,3.589609c-1.147874,4.502267 -2.07415,9.08375 -2.546026,13.822271l23.418154,12.325201c0.265314,6.488037 1.34666,12.776005 3.261486,18.697318l-17.665393,19.43013c2.054954,4.239861 4.34281,8.351625 6.989489,12.209245l26.00831,-5.554181c4.264259,4.615393 9.12266,8.659229 14.482924,12.00334l-0.985812,26.470836c4.271432,1.916369 8.709515,3.520216 13.283101,4.802201l16.453968,-21.039032c2.919442,0.370757 5.875768,0.620474 8.891115,0.620474c3.266568,0 6.461097,-0.293557 9.604186,-0.723126l16.539649,21.155747c4.580767,-1.280505 9.01209,-2.884265 13.283086,-4.800742l-1.004835,-26.946218c5.109035,-3.290253 9.741773,-7.226576 13.82605,-11.670811l26.6847,5.695756c2.646694,-3.857028 4.934862,-7.964415 6.989075,-12.207822l-18.237559,-20.066298c1.751928,-5.608653 2.73056,-11.529374 3.01547,-17.636708l-0.000007,0zm-40.311587,30.651726l-11.499139,7.446666l-7.072738,-10.809772c-3.679343,1.407815 -7.640577,2.263849 -11.816358,2.263849c-18.237479,0 -33.017257,-14.708054 -33.017257,-32.847084c0,-18.139767 14.779778,-32.84213 33.017257,-32.84213c18.232716,0 33.017896,14.702363 33.017896,32.84213c0,9.064611 -3.691425,17.258923 -9.658349,23.204345l7.028689,10.741997z" stroke-opacity="null" stroke-width="1.5" fill="#ffff00"/>
  <path stroke="#000" id="svg_3" d="m604.354601,507.509044l36.380674,-17.639453c-0.715176,-6.535612 -2.097359,-12.875558 -3.826467,-19.108036l-40.413728,-5.130337c-3.497946,-7.724774 -8.11711,-14.889286 -13.546843,-21.465972l15.40517,-34.732982c-5.065501,-4.528812 -10.536041,-8.657776 -16.29387,-12.45704l-34.316499,19.749667c-8.047257,-3.879514 -16.717401,-6.826056 -25.818984,-8.718469l-12.401448,-35.220779c-3.517169,-0.243479 -7.033325,-0.500716 -10.620162,-0.500716s-7.09305,0.251297 -10.620793,0.500716l-12.278589,34.9088c-9.345558,1.83177 -18.207141,4.812537 -26.461247,8.739935l-33.782077,-19.459153c-5.750542,3.799263 -11.220854,7.928237 -16.285952,12.45704l14.981225,33.773592c-5.838954,6.860311 -10.72748,14.429684 -14.399199,22.587662l-39.137905,4.962107c-1.721812,6.223722 -3.111226,12.556949 -3.81904,19.107258l35.127231,17.037779c0.397971,8.968757 2.01999,17.660949 4.892229,25.846293l-26.49809,26.859297c3.08243,5.860985 6.514215,11.544893 10.484234,16.877486l39.012465,-7.677839c6.396388,6.380102 13.683991,11.970111 21.724386,16.592853l-1.478718,36.592039c6.407148,2.649099 13.064272,4.866181 19.924651,6.638337l24.680952,-29.083368c4.379164,0.512518 8.813652,0.857714 13.336672,0.857714c4.899852,0 9.691646,-0.405799 14.406278,-0.999616l24.809474,29.244709c6.87115,-1.770109 13.518135,-3.987072 19.924629,-6.63632l-1.507252,-37.249184c7.663553,-4.548291 14.612659,-9.989679 20.739075,-16.13318l40.027051,7.873545c3.97004,-5.331774 7.402294,-11.009632 10.483613,-16.875519l-27.356339,-27.738706c2.627892,-7.753138 4.09584,-15.937664 4.523205,-24.380156l-0.000011,0zm-60.46738,42.371504l-17.248708,10.293921l-10.609108,-14.94292c-5.519015,1.946097 -11.460865,3.129438 -17.724538,3.129438c-27.356219,0 -49.525886,-20.331723 -49.525886,-45.406264c0,-25.07556 22.169667,-45.399415 49.525886,-45.399415c27.349075,0 49.526844,20.323855 49.526844,45.399415c0,12.530492 -5.537137,23.857924 -14.487524,32.076595l10.543033,14.849231z" stroke-opacity="null" stroke-width="1.5" fill="#00d4ff"/>
 </g>
</svg>